<?xml version="1.0" encoding="UTF-8" standalone="no"?>
<!-- Created with Inkscape (http://www.inkscape.org/) -->

<svg
   width="200"
   height="200"
   viewBox="0 0 52.916665 52.916666"
   version="1.1"
   id="svg5"
   xml:space="preserve"
   inkscape:version="1.2.1 (9c6d41e410, 2022-07-14, custom)"
   sodipodi:docname="logo.svg"
   xmlns:inkscape="http://www.inkscape.org/namespaces/inkscape"
   xmlns:sodipodi="http://sodipodi.sourceforge.net/DTD/sodipodi-0.dtd"
   xmlns="http://www.w3.org/2000/svg"
   xmlns:svg="http://www.w3.org/2000/svg"><sodipodi:namedview
     id="namedview7"
     pagecolor="#505050"
     bordercolor="#eeeeee"
     borderopacity="1"
     inkscape:showpageshadow="0"
     inkscape:pageopacity="0"
     inkscape:pagecheckerboard="0"
     inkscape:deskcolor="#505050"
     inkscape:document-units="mm"
     showgrid="false"
     inkscape:zoom="2.587745"
     inkscape:cx="114.77174"
     inkscape:cy="99.700706"
     inkscape:window-width="850"
     inkscape:window-height="1355"
     inkscape:window-x="26"
     inkscape:window-y="23"
     inkscape:window-maximized="0"
     inkscape:current-layer="layer1"><sodipodi:guide
       position="0,52.916666"
       orientation="0,200"
       id="guide111"
       inkscape:locked="false" /><sodipodi:guide
       position="52.916666,52.916666"
       orientation="200,0"
       id="guide113"
       inkscape:locked="false" /><sodipodi:guide
       position="52.916666,0"
       orientation="0,-200"
       id="guide115"
       inkscape:locked="false" /><sodipodi:guide
       position="0,0"
       orientation="-200,0"
       id="guide117"
       inkscape:locked="false" /></sodipodi:namedview><defs
     id="defs2"><inkscape:perspective
       sodipodi:type="inkscape:persp3d"
       inkscape:vp_x="0 : 26.458333 : 1"
       inkscape:vp_y="0 : 1000 : 0"
       inkscape:vp_z="52.916665 : 26.458333 : 1"
       inkscape:persp3d-origin="26.458333 : 17.638889 : 1"
       id="perspective1120" /><clipPath
       clipPathUnits="userSpaceOnUse"
       id="clipPath377"><path
         style="fill:#000000;stroke-width:0.543467"
         d="m 28.922398,62.034796 c 0.392311,-0.156991 0.861052,-0.137687 1.041646,0.04288 0.180589,0.180589 -0.140399,0.309036 -0.713301,0.285441 -0.633111,-0.02609 -0.761883,-0.154856 -0.328345,-0.328343 z m 10.573972,-0.0054 c 0.528778,-0.13779 1.262457,-0.12873 1.6304,0.02016 0.367945,0.148874 -0.06469,0.26161 -0.961409,0.250534 -0.89672,-0.01109 -1.197766,-0.132879 -0.668991,-0.270668 z m 11.810056,-0.981985 c 0.702024,-0.747265 1.398682,-1.358664 1.548135,-1.358664 0.149455,0 -0.302646,0.611399 -1.004668,1.358664 -0.702024,0.747268 -1.398683,1.358667 -1.548135,1.358667 -0.149453,0 0.302646,-0.611399 1.004668,-1.358667 z M 17.068034,59.17732 c 0,-0.281266 0.2038,-0.637353 0.452887,-0.791295 0.249093,-0.153948 0.452892,0.07618 0.452892,0.511392 0,0.435208 -0.203799,0.791292 -0.452892,0.791292 -0.249087,0 -0.452887,-0.230124 -0.452887,-0.511389 z M -37.836703,49.212378 C -56.352006,42.899883 -59.960354,17.89969 -44.005188,6.4744478 c 4.644165,-3.325613 9.362247,-4.6024168 15.76873,-4.2673153 4.486764,0.2346851 5.609176,0.5098912 9.084317,2.227403 C -7.1592099,10.36176 -2.1981321,24.510096 -7.8658077,36.621638 -13.059963,47.721295 -26.118944,53.207356 -37.836703,49.212378 Z m 15.10401,-0.311343 C -11.59343,45.434104 -4.5205224,34.150247 -6.341532,22.751183 -7.8091477,13.564267 -14.07547,6.2651426 -22.75925,3.6275256 c -2.945681,-0.894725 -4.734271,-1.0839113 -8.531126,-0.9023826 -4.178771,0.1997892 -5.328484,0.4888754 -8.833374,2.2210823 -5.001062,2.471664 -9.042115,6.5906837 -11.447251,11.6681277 -1.629476,3.439959 -1.739884,4.052386 -1.739884,9.651167 0,5.592396 0.111688,6.213899 1.730933,9.632035 5.244351,11.070561 17.4214,16.559604 28.847259,13.00348 z m -7.87812,-6.436405 c 0.528775,-0.13779 1.262457,-0.12873 1.6304,0.02016 0.367945,0.148871 -0.06469,0.261607 -0.961409,0.250532 -0.89672,-0.01109 -1.197766,-0.132877 -0.668991,-0.270666 z m -7.240741,-2.244135 c -1.328872,-0.8436 -3.101117,-2.43324 -3.938323,-3.532531 -1.786704,-2.346032 -1.586163,-2.562064 0.543124,-0.585087 0.837393,0.777494 2.378493,1.885802 3.424666,2.462898 1.079201,0.595318 1.373106,0.908384 0.679334,0.72362 -1.849822,-0.492647 -1.467821,0.135736 0.815199,1.340982 1.1209,0.591749 1.780181,1.08671 1.465067,1.099918 -0.315113,0.0132 -1.660194,-0.6662 -2.989067,-1.5098 z m -0.514,-1.3971 c 0,-0.117475 -0.37954,-0.35923 -0.843426,-0.537245 -0.483645,-0.185586 -0.701791,-0.09448 -0.511392,0.213588 0.319154,0.516408 1.354818,0.763815 1.354818,0.323657 z m 16.57573,0.98811 c 0.597813,-0.451721 1.086933,-1.009132 1.086933,-1.238697 0,-0.229561 0.95823,-1.258414 2.129399,-2.286336 1.479239,-1.298316 1.944262,-1.522773 1.52304,-0.735148 -0.673789,1.259893 -4.783542,5.125879 -5.420271,5.098775 -0.223318,-0.0095 0.08309,-0.386876 0.680899,-0.838594 z m -24.184261,-13.23321 c 0,-0.380535 0.759542,-1.401404 1.687875,-2.268597 2.357655,-2.202382 5.383332,-2.197648 7.592862,0.0119 2.232353,2.232352 1.977017,2.991386 -0.449405,1.335933 -2.461086,-1.679105 -5.493126,-1.523413 -7.526084,0.386453 -0.777031,0.729962 -1.305248,0.946203 -1.305248,0.534308 z m 22.007567,-1.122508 c 1.011695,-1.956403 2.345145,-2.7228 4.737374,-2.7228 1.994343,0 3.91013,1.099216 4.793923,2.750599 0.559287,1.045037 0.537053,1.044568 -1.218595,-0.02581 -2.395423,-1.460474 -4.752781,-1.376905 -7.155555,0.253663 l -1.986425,1.348025 0.829278,-1.60365 z m 9.146764,-7.111177 c -0.321263,-0.321265 -1.531834,-0.921932 -2.690159,-1.334814 -1.86781,-0.665779 -1.940412,-0.753397 -0.641818,-0.774554 0.810294,-0.01321 2.145231,0.575265 2.989066,1.31764 0.838662,0.737821 1.390331,1.349221 1.225933,1.358666 -0.164399,0.0095 -0.561758,-0.245679 -0.883022,-0.566938 z m -29.523931,-0.997729 c 0.747265,-0.611226 1.970066,-1.095742 2.717332,-1.076694 l 1.358667,0.03462 -1.390404,0.421904 c -0.764723,0.232044 -1.987524,0.71656 -2.717332,1.076694 l -1.32693,0.654801 z M 18.076822,49.190997 C 9.4275738,46.242843 3.2746196,38.899301 1.8043631,29.76984 0.18686539,19.726101 5.83101,9.0874511 15.245552,4.4345355 c 3.475142,-1.7175118 4.597553,-1.9927179 9.084315,-2.227403 6.406488,-0.3351015 11.124564,0.9417023 15.768729,4.2673153 13.488255,9.6587202 13.495293,29.9183812 0.01376,39.5722972 -6.15909,4.410424 -14.732025,5.633698 -22.03553,3.144252 z m 16.519145,-0.87535 C 47.704087,43.260325 53.395777,27.742179 46.848755,14.908956 45.300551,11.874222 40.911486,7.4019767 37.86151,5.7513709 30.704941,1.8783407 22.627028,1.5958033 15.793116,4.9794964 11.81812,6.9476496 8.1405309,10.104962 5.8746829,13.494747 1.2967599,20.34349 1.2465436,31.68781 5.7628322,38.76525 c 3.0515536,4.782074 9.1474548,9.268407 14.3582558,10.56709 3.487805,0.86926 10.942379,0.345663 14.474879,-1.016693 z M 21.354371,42.026044 c -3.105172,-0.996649 -9.386749,-6.366727 -8.492931,-7.260545 0.423148,-0.423149 0.757098,-0.252125 1.185485,0.607139 0.328015,0.657931 2.181328,2.020012 4.118482,3.026841 3.383873,1.758773 3.71404,1.82181 8.413293,1.606389 5.492216,-0.25177 8.392417,-1.385147 10.767613,-4.20792 0.766527,-0.910958 1.543571,-1.413767 1.726769,-1.117349 0.518972,0.839711 -3.261707,4.582613 -6.298229,6.235295 -3.358981,1.828189 -7.829434,2.262743 -11.420482,1.11015 z M 19.2419,25.993526 c -2.18467,-1.7093 -4.556027,-1.914584 -7.057152,-0.610927 -2.5927158,1.351401 -2.8492428,0.725973 -0.509679,-1.242637 2.398334,-2.018065 5.482572,-1.944447 7.608635,0.181622 0.873731,0.873725 1.588596,1.851965 1.588596,2.173865 0,0.759071 -0.03082,0.749578 -1.6304,-0.501923 z m 11.956264,0.601692 c 0,-0.284917 0.63314,-1.270482 1.406975,-2.190131 1.186251,-1.409779 1.789631,-1.6721 3.846076,-1.6721 1.971217,0 2.743819,0.304728 4.027683,1.588597 2.23198,2.231978 1.977138,2.990983 -0.449403,1.338465 -2.368486,-1.612976 -4.836895,-1.5 -7.31883,0.334971 -0.831874,0.615031 -1.512501,0.885123 -1.512501,0.600198 z m -20.450146,-8.66504 c 1.398524,-1.560308 4.375574,-2.498288 5.623662,-1.771847 0.802825,0.467283 0.643366,0.56664 -0.934046,0.582031 -1.046173,0.01022 -2.758092,0.53733 -3.804265,1.171387 l -1.9021332,1.152834 z m 29.417343,-0.08839 c -0.89672,-0.593873 -2.474129,-1.081384 -3.505358,-1.083352 -1.429676,-0.0027 -1.724219,-0.154322 -1.240245,-0.638296 0.849296,-0.849297 4.471566,0.217789 5.828294,1.716952 1.241129,1.371444 0.982718,1.372563 -1.082691,0.0049 z"
         id="path379" /></clipPath></defs><g
     inkscape:label="Layer 1"
     inkscape:groupmode="layer"
     id="layer1"><g
       id="g1264"
       transform="translate(0.11023198,-0.32866532)"><circle
         style="fill:#ff00ff;stroke-width:0.264583"
         id="path119"
         clip-path="url(#clipPath377)"
         r="25.913252"
         cy="26.458334"
         cx="26.458334"
         transform="translate(-0.11023262,-0.47647653)" /><path
         style="fill:#800080;stroke-width:0.386437"
         d="m 82.890703,185.65264 c -0.53135,-0.091 -2.270316,-0.35595 -3.864368,-0.58886 C 73.371612,184.23756 64.740534,180.9894 57.192653,176.84705 43.460793,169.31087 30.017838,157.27741 22.185339,145.51026 6.2977459,121.64155 4.4886086,83.03018 18.004549,56.28208 27.469569,37.550772 48.732658,19.891398 70.382322,12.781412 80.880903,9.3335623 88.067663,8.3140334 99.834328,8.6032852 c 11.358922,0.2792283 19.688192,1.8973518 30.461802,5.9177988 12.03294,4.490396 20.31274,9.980331 30.59557,20.286442 11.03294,11.057922 16.33056,19.316444 20.88007,32.550132 3.44333,10.01603 4.83657,18.553645 4.83657,29.63799 0,10.673772 -1.17558,18.375482 -4.26656,27.952102 -7.49455,23.21985 -23.45462,41.91184 -44.72355,52.37897 -8.13181,4.00193 -15.05887,5.9877 -26.51764,7.60176 -4.22217,0.59473 -25.739427,1.14708 -28.209887,0.72416 z m 25.157987,-27.16843 c 4.83504,-0.98145 9.95974,-2.71523 13.93813,-4.71553 12.19184,-6.12993 27.70879,-21.20232 25.26639,-24.5425 -0.84878,-1.16078 -2.62806,-0.0143 -7.1058,4.57843 -2.2669,2.32513 -5.09028,4.97947 -6.27416,5.89852 -8.65477,6.71865 -20.7971,9.53167 -41.514844,9.61777 -7.365076,0.0306 -9.308394,-0.0792 -11.341183,-0.64104 -6.906832,-1.90886 -20.941894,-9.67814 -25.893599,-14.33373 -0.712883,-0.67025 -1.934047,-2.17507 -2.713699,-3.34404 -1.480381,-2.21961 -2.460694,-2.70895 -3.892168,-1.94285 -2.434961,1.30315 1.054099,6.56382 8.784749,13.24529 12.472311,10.77962 21.219398,15.45488 31.577969,16.87824 4.167501,0.57265 14.817845,0.18451 19.168215,-0.69856 z M 78.570826,98.980349 c 0.16504,-1.719829 -1.814958,-4.711306 -5.691291,-8.598668 -4.861943,-4.875782 -9.644772,-6.78704 -16.117554,-6.440708 -5.779333,0.309227 -9.948538,2.266591 -15.157619,7.116227 -3.244885,3.020974 -4.447786,4.708988 -3.940548,5.529718 0.526417,0.851761 2.769097,0.248707 7.715725,-2.074749 5.213982,-2.449031 8.354083,-3.299254 12.21497,-3.307362 5.309329,-0.01117 9.580221,1.711409 15.828492,6.384018 2.125402,1.589426 4.125213,2.843815 4.444023,2.787535 0.347512,-0.0614 0.629375,-0.620436 0.703802,-1.396011 z m 41.533614,-0.300837 c 0.6802,-0.349118 2.30789,-1.396559 3.61707,-2.327648 2.83648,-2.017289 7.25564,-4.097015 10.13296,-4.768727 2.91595,-0.680728 8.15298,-0.305796 11.05935,0.791766 1.27524,0.481582 3.44895,1.57196 4.83046,2.423064 4.80791,2.961995 6.38418,3.729471 7.67402,3.736427 1.21989,0.0066 1.282,-0.05601 1.03441,-1.04246 -0.67513,-2.689945 -8.03249,-10.312404 -11.46242,-11.875444 -3.61382,-1.646836 -9.21441,-2.165063 -14.74933,-1.36476 -2.86503,0.414257 -4.85458,1.307397 -6.64899,2.984819 -3.35722,3.138362 -8.30839,9.910892 -8.30839,11.36476 0,0.902299 1.15296,0.934261 2.82086,0.0782 z M 41.683949,67.303449 c 5.95529,-3.5863 10.333828,-5.050834 16.834612,-5.630837 5.524087,-0.492862 6.054089,-0.919809 3.056684,-2.462326 -2.211991,-1.138331 -5.867359,-1.244655 -9.60534,-0.279393 -3.157371,0.815327 -7.949493,3.286815 -10.180105,5.250277 -2.246681,1.977606 -6.027232,6.366435 -5.221866,6.062043 0.346119,-0.130817 2.648326,-1.45371 5.116015,-2.939764 z m 116.293961,1.057503 c -1.13839,-1.953017 -5.38652,-5.675284 -7.9616,-6.976066 -4.27546,-2.159706 -7.52022,-3.09328 -11.51466,-3.312965 l -3.70711,-0.203884 -1.31657,1.18483 c -2.00865,1.807659 -1.21151,2.316365 4.30622,2.748049 6.58362,0.515082 9.56102,1.557387 15.98003,5.594184 1.89216,1.189943 3.77138,2.163532 4.17605,2.163532 0.71528,0 0.71633,-0.03331 0.0376,-1.19768 z"
         id="path1260"
         transform="scale(0.26458333)" /></g></g><g
     inkscape:groupmode="layer"
     id="layer2"
     inkscape:label="Layer 2" /></svg>
